<svg width="131" height="90" viewBox="0 0 131 90" fill="none" xmlns="http://www.w3.org/2000/svg">
<path d="M86.5097 22.9191L86.5097 22.9192C86.9923 22.6624 87.5872 22.8368 87.8507 23.3144L87.8509 23.3149C88.1124 23.7945 87.9353 24.3956 87.4557 24.657L87.4556 24.657C85.8347 25.5383 84.3235 26.6941 82.9683 28.0899L82.8965 28.0202M86.5097 22.9191L79.6916 29.9391M86.5097 22.9191L86.5088 22.9196C84.7635 23.8703 83.1391 25.1006 81.6782 26.5805C81.6223 26.6177 81.5735 26.6612 81.5305 26.7042L79.6211 28.6136L86.5097 22.9191ZM82.8965 28.0202L82.9686 28.0896C82.9169 28.1432 82.8604 28.1885 82.8031 28.2273L81.0188 30.0098C81.0188 30.0098 81.0187 30.0098 81.0187 30.0098C80.8253 30.2032 80.572 30.3 80.3189 30.3C80.0656 30.3 79.8143 30.2031 79.621 30.0099M82.8965 28.0202C82.8484 28.0702 82.7948 28.1127 82.7393 28.1497L81.7419 26.6583C83.1982 25.1817 84.8173 23.9549 86.5567 23.0074C86.9915 22.7761 87.5263 22.9334 87.7631 23.3627C87.9981 23.7939 87.839 24.3342 87.4078 24.5692C85.7776 25.4555 84.2584 26.6176 82.8965 28.0202ZM79.621 30.0099C79.621 30.0099 79.621 30.0098 79.6209 30.0098L79.6916 29.9391M79.621 30.0099C79.6211 30.0099 79.6211 30.0099 79.6211 30.01L79.6916 29.9391M79.621 30.0099C79.234 29.6248 79.234 28.9988 79.621 28.6137L79.6209 28.6138L79.6916 28.6845C79.3438 29.0305 79.3438 29.5931 79.6916 29.9391" fill="white" stroke="white" stroke-width="0.2"/>
<path d="M113.249 57.4743C112.812 57.1509 112.19 57.2436 111.867 57.6843C109.312 61.1617 105.372 63.195 101.07 63.2669H94.6C94.0544 63.2669 93.6118 63.7095 93.6118 64.255C93.6118 64.8006 94.0544 65.2432 94.6 65.2432H101.084V65.2433L101.085 65.2432C106.026 65.1632 110.537 62.8332 113.459 58.8555L113.459 58.8555C113.782 58.4151 113.687 57.7976 113.249 57.4743ZM113.249 57.4743C113.249 57.4743 113.249 57.4742 113.249 57.4742L113.189 57.5547L113.249 57.4743C113.249 57.4743 113.249 57.4743 113.249 57.4743Z" fill="white" stroke="white" stroke-width="0.2"/>
<path d="M82.9646 28.0917L82.9647 28.0916C84.3088 26.7052 85.82 25.5456 87.454 24.6476C96.0445 19.9615 106.954 23.1753 111.776 31.8196C111.957 32.1448 112.292 32.328 112.64 32.328C112.803 32.328 112.968 32.2867 113.12 32.2026L113.12 32.2024C113.597 31.935 113.769 31.334 113.503 30.8581C108.158 21.2721 96.0541 17.7043 86.5051 22.9159L86.5049 22.9161C84.7403 23.8856 83.1098 25.1258 81.6538 26.6049C81.4126 26.7863 81.2571 27.0763 81.2571 27.404C81.2571 27.8201 81.5497 28.1359 81.8968 28.2755C82.244 28.4152 82.6746 28.3902 82.9646 28.0917Z" fill="white" stroke="white" stroke-width="0.2"/>
<path d="M89.7195 30.9235L89.62 30.914C89.6039 31.0817 89.5903 31.2566 89.5934 31.3518C89.564 31.6666 89.564 31.95 89.564 32.2592V32.2613C89.564 33.9652 89.8285 35.6265 90.3871 37.2857L90.3913 37.2982L90.3953 37.3042L90.3982 37.3113L90.4003 37.3163C90.5148 37.7129 90.6697 38.0952 90.8284 38.4679L90.8284 38.4679L90.8289 38.4691C91.0411 38.9512 91.2662 39.4013 91.5131 39.8654L91.5131 39.8654L91.5138 39.8667C92.2196 41.1461 93.0893 42.3156 94.1837 43.423L94.1844 43.4237C94.4588 43.6962 94.7328 43.9591 95.017 44.2003C97.8811 46.6787 101.549 48.0436 105.348 48.0436C105.893 48.0436 106.336 47.6031 106.336 47.0572C106.336 46.5116 105.894 46.069 105.348 46.069C102.025 46.069 98.8134 44.8731 96.304 42.6998L96.3034 42.6993C96.0546 42.4871 95.8198 42.2652 95.5064 41.9518C94.6231 41.0556 93.8628 40.0327 93.2529 38.9252C93.0355 38.5162 92.8315 38.108 92.6442 37.6821C92.5099 37.3692 92.3763 37.0434 92.2297 36.5762L92.2297 36.5762L92.2292 36.5744C91.7719 35.2045 91.5385 33.7534 91.5385 32.2613C91.5385 32.0066 91.5386 31.784 91.566 31.4346L91.5663 31.4347V31.4268C91.5663 31.3429 91.5731 31.2525 91.5836 31.1137C91.5862 31.0799 91.589 31.0432 91.5919 31.003L91.5922 31.003V30.9957V30.9827C91.5922 30.452 91.1729 30.0285 90.6476 30.0039L90.6476 30.0032L90.636 30.004C90.1456 30.0379 89.668 30.3793 89.6199 30.9145L89.7195 30.9235ZM89.7195 30.9235C89.7621 30.4498 90.1877 30.1352 90.6429 30.1038M89.7195 30.9235C89.7029 31.0974 89.6899 31.2695 89.6936 31.3546C89.664 31.6673 89.664 31.9486 89.664 32.2613V32.2613C89.664 33.9545 89.9268 35.605 90.4819 37.2537L90.6429 30.1038M90.6429 30.1038C91.1166 30.126 91.4922 30.5071 91.4922 30.9827V30.9957C91.4893 31.0348 91.4866 31.0708 91.4841 31.1043C91.4735 31.2436 91.4663 31.3388 91.4663 31.4268L90.6429 30.1038Z" fill="white" stroke="white" stroke-width="0.2"/>
<path d="M82.8339 37.3604C82.4468 37.7455 82.447 38.3695 82.8336 38.7563C83.0254 38.95 83.2789 39.0467 83.5318 39.0467C83.7832 39.0467 84.0365 38.9498 84.2298 38.7565L91.2982 31.6881C91.2982 31.688 91.2983 31.688 91.2983 31.688C91.6854 31.3028 91.6852 30.6789 91.2986 30.2921C90.915 29.9046 90.289 29.9052 89.9024 30.2919L82.834 37.3603C82.834 37.3603 82.8339 37.3603 82.8339 37.3604Z" fill="white" stroke="white" stroke-width="0.2"/>
<path d="M77.6762 37.496C77.8945 37.7606 77.9408 38.127 77.7946 38.4379C77.6466 38.7506 77.3338 38.9486 76.9897 38.9486H72.7282C70.7778 38.9486 69.1902 37.3684 69.1902 35.4254V31.9466C69.1902 30.0037 70.7778 28.4235 72.7282 28.4235H80.3223C80.6812 28.4235 81.0051 28.6381 81.142 28.9693L77.6762 37.496ZM81.2343 28.9309C81.0817 28.562 80.7212 28.3235 80.3223 28.3235H72.7282C70.723 28.3235 69.0902 29.9481 69.0902 31.9466V35.4254C69.0902 37.424 70.723 39.0486 72.7282 39.0486H76.9897C77.3726 39.0486 77.7205 38.8282 77.885 38.4807L77.8851 38.4804C78.0477 38.1346 77.9963 37.727 77.7534 37.4325C76.6849 36.1327 76.7765 34.265 77.9629 33.0836L77.9631 33.0835L77.9747 33.0719L81.0241 30.0076L81.0245 30.0073C81.304 29.7236 81.3887 29.2997 81.2343 28.9309ZM77.9465 30.3017L76.577 31.6795C76.5769 31.6796 76.5768 31.6797 76.5767 31.6797C75.1113 33.1324 74.6772 35.2307 75.3185 37.0759H72.7282C71.8113 37.0759 71.0666 36.3336 71.0666 35.4273V31.9485C71.0666 31.0667 71.7687 30.3429 72.649 30.3017H72.7282H77.9465Z" fill="white" stroke="white" stroke-width="0.2"/>
<path d="M77.9226 37.6115L77.9229 37.6113L92.3783 37.6311C92.2137 37.5127 92.0305 37.3961 91.8639 37.2981L91.9159 37.2126C91.9157 37.2125 91.9155 37.2124 91.9153 37.2123C91.7623 37.1194 91.5871 37.0722 91.4087 37.0722H83.5334C83.2721 37.0722 83.0207 37.1751 82.8352 37.3626C82.8351 37.3627 82.8351 37.3628 82.835 37.3628L82.5394 37.6584C81.3441 38.852 79.2621 38.9241 77.9226 37.6115ZM96.6189 43.6711C96.7031 43.3053 96.5758 42.9244 96.2873 42.6854L77.6639 37.4813L77.7398 37.4161C77.7397 37.4161 77.7397 37.416 77.7396 37.416C77.5522 37.1977 77.2784 37.0722 76.9903 37.0722H74.7846C72.7776 37.0722 71.1466 38.6969 71.1466 40.6936V44.1594C71.1466 46.1649 72.7772 47.7974 74.7846 47.7974H91.4087C93.8698 47.7974 96.0624 46.0632 96.6188 43.6713L96.6189 43.6711ZM94.0811 43.3334L94.0822 43.3345C94.117 43.3693 94.1681 43.417 94.2136 43.4511C94.2416 43.4786 94.2696 43.5063 94.2976 43.534C94.3716 43.6071 94.4458 43.6805 94.5212 43.7533C94.004 44.9795 92.771 45.8228 91.4069 45.8228H74.7828C73.8665 45.8228 73.1212 45.0775 73.1212 44.1612V40.6954C73.1212 39.8138 73.8231 39.0917 74.7033 39.0505H74.7828H76.5593C76.566 39.0566 76.573 39.0628 76.5803 39.0685C78.5731 41.0228 81.9613 40.9983 83.9023 39.0873L91.0978 39.0508C91.2319 39.3227 91.3708 39.5916 91.5145 39.8649L91.5151 39.866C92.1858 41.1031 93.0518 42.2725 94.0811 43.3334Z" fill="white" stroke="white" stroke-width="0.2"/>
<path d="M94.7823 50.645L94.7822 50.645C94.5235 47.9294 92.0939 45.81 89.2591 45.81H76.8281C74.8281 45.81 73.203 47.4351 73.203 49.4351V52.9027C73.203 54.9028 74.8281 56.5278 76.8281 56.5278H89.4479C90.9544 56.5278 92.4025 55.8887 93.4134 54.7722C94.428 53.6576 94.9255 52.1531 94.7823 50.645ZM75.1813 49.4351C75.1813 48.5262 75.9211 47.7864 76.8299 47.7864H89.2628C91.0983 47.7864 92.6548 49.1307 92.8178 50.8323C92.9096 51.8039 92.604 52.7289 91.9552 53.4424C91.3135 54.147 90.4022 54.5514 89.4497 54.5514H76.8299C75.9211 54.5514 75.1813 53.8116 75.1813 52.9027V49.4351Z" fill="white" stroke="white" stroke-width="0.2"/>
<path d="M78.8881 65.2673L78.8887 65.2673L80.4499 65.2581C80.5007 65.2656 80.5694 65.271 80.6201 65.271H87.5702C89.0769 65.271 90.5211 64.6318 91.5391 63.5175L91.5393 63.5174C92.5539 62.4028 93.0515 60.8982 92.9083 59.3901L92.9083 59.39C92.6477 56.6746 90.2202 54.5533 87.3872 54.5532C87.3871 54.5532 87.3871 54.5532 87.387 54.5532L86.4881 54.5495H86.4877H86.4877H86.4877H86.4877H86.4877H86.4877H86.4876H86.4876H86.4876H86.4876H86.4876H86.4876H86.4876H86.4876H86.4876H86.4875H86.4875H86.4875H86.4875H86.4875H86.4875H86.4875H86.4875H86.4875H86.4875H86.4874H86.4874H86.4874H86.4874H86.4874H86.4874H86.4874H86.4874H86.4874H86.4874H86.4874H86.4873H86.4873H86.4873H86.4873H86.4873H86.4873H86.4873H86.4873H86.4873H86.4873H86.4873H86.4872H86.4872H86.4872H86.4872H86.4872H86.4872H86.4872H86.4872H86.4872H86.4872H86.4872H86.4871H86.4871H86.4871H86.4871H86.4871H86.4871H86.4871H86.4871H86.4871H86.4871H86.4871H86.4871H86.487H86.487H86.487H86.487H86.487H86.487H86.487H86.487H86.487H86.487H86.487H86.487H86.4869H86.4869H86.4869H86.4869H86.4869H86.4869H86.4869H86.4869H86.4869H86.4869H86.4869H86.4869H86.4869H86.4868H86.4868H86.4868H86.4868H86.4868H86.4868H86.4868H86.4868H86.4868H86.4868H86.4867H86.4867H86.4867H86.4867H86.4867H86.4867H86.4867H86.4867H86.4867H86.4866H86.4866H86.4866H86.4866H86.4866H86.4866H86.4866H86.4866H86.4865H86.4865H86.4865H86.4865H86.4865H86.4865H86.4865H86.4865H86.4864H86.4864H86.4864H86.4864H86.4864H86.4864H86.4864H86.4864H86.4863H86.4863H86.4863H86.4863H86.4863H86.4863H86.4863H86.4863H86.4862H86.4862H86.4862H86.4862H86.4862H86.4862H86.4862H86.4862H86.4862H86.4861H86.4861H86.4861H86.4861H86.4861H86.4861H86.4861H86.4861H86.4861H86.486H86.486H86.486H86.486H86.486H86.486H86.486H86.486H86.486H86.4859H86.4859H86.4859H86.4859H86.4859H86.4859H86.4859H86.4859H86.4859H86.4858H86.4858H86.4858H86.4858H86.4858H86.4858H86.4858H86.4858H86.4858H86.4857H86.4857H86.4857H86.4857H86.4857H86.4857H86.4857H86.4857H86.4857H86.4857H86.4856H86.4856H86.4856H86.4856H86.4856H86.4856H86.4856H86.4856H86.4855H86.4855H86.4855H86.4855H86.4855H86.4855H86.4855H86.4855H86.4855H86.4854H86.4854H86.4854H86.4854H86.4854H86.4854H86.4854H86.4854H86.4854H86.4853H86.4853H86.4853H86.4853H86.4853H86.4853H86.4853H86.4853H86.4852H86.4852H86.4852H86.4852H86.4852H86.4852H86.4852H86.4851H86.4851H86.4851H86.4851H86.4851H86.4851H86.4851H86.4851H86.485H86.485H86.485H86.485H86.485H86.485H86.485H86.485H86.485H86.4849H86.4849H86.4849H86.4849H86.4849H86.4849H86.4849H86.4849H86.4849H86.4849H86.4849H86.4848H86.4848H86.4848H86.4848H86.4848H86.4848H86.4848H86.4848H86.4848H86.4848H86.4848H86.4848H86.4848H86.4847H86.4847H86.4847H86.4847H86.4847H86.4847H86.4847H86.4847H86.4847H86.4847H86.4847H86.4847H86.4846H86.4846H86.4846H86.4846H86.4846H86.4846H86.4846H86.4846H86.4846H86.4846H86.4846H86.4846H86.4845H86.4845H86.4845H86.4845H86.4845H86.4845H86.4845H86.4845H86.4845H86.4845H86.4845H86.4844H86.4844H86.4844H86.4844H86.4844H86.4844H86.4844H86.4844H86.4844H86.4844H86.4844H86.4843H86.4843H86.4843H86.4843H86.4843H86.4843H86.4843H86.4843H86.4843H86.4843H86.4842H86.4842H86.4842H86.4842H86.4842H86.4842H86.4842H86.4842H86.4842H86.4842H86.4841H86.4841H86.4841H86.4841H86.4841H86.4841H86.4841H86.4841H86.4841H86.4841H86.484H86.484H86.484H86.484H78.8881C76.8899 54.5495 75.263 56.1745 75.263 58.1746V61.6422C75.263 63.6423 76.8881 65.2673 78.8881 65.2673ZM87.5702 63.2927H87.5701L80.7479 63.302C80.6974 63.2944 80.6302 63.289 80.5793 63.289H78.8862C77.9755 63.289 77.2357 62.5492 77.2357 61.6404V58.1727C77.2357 57.264 77.9755 56.5241 78.8862 56.5241C78.8862 56.5241 78.8862 56.5241 78.8862 56.5241L87.3833 56.5259H87.3833C89.2188 56.5259 90.7753 57.8703 90.9383 59.5738C91.0301 60.5435 90.7245 61.4703 90.0757 62.1838L90.0756 62.1838C89.4358 62.8883 88.5227 63.2927 87.5702 63.2927Z" fill="white" stroke="white" stroke-width="0.2"/>
<path d="M49.7519 30.0189L49.7523 30.0193C49.9454 30.2103 50.1966 30.3072 50.4499 30.3072C50.7031 30.3072 50.9562 30.2104 51.1512 30.0174L51.1518 30.0168C51.5366 29.6299 51.5366 29.0061 51.1497 28.6192L49.229 26.6984L49.229 26.6984L49.2272 26.6967C49.1888 26.6602 49.1469 26.6257 49.103 26.5945C47.651 25.1159 46.0226 23.8779 44.2603 22.9178C43.7803 22.6522 43.1792 22.8316 42.9197 23.311C42.6563 23.7908 42.8336 24.3899 43.313 24.6512C44.9433 25.5418 46.4507 26.6957 47.7928 28.0857C47.8388 28.1337 47.8881 28.1735 47.9398 28.2086L49.7519 30.0189Z" fill="white" stroke="white" stroke-width="0.2"/>
<path d="M37.1494 64.2549C37.1494 63.7093 36.7068 63.2667 36.1612 63.2667H29.7059C25.389 63.1948 21.4495 61.1615 18.8943 57.6842C18.5708 57.2413 17.949 57.1509 17.5125 57.4741C17.0741 57.7973 16.9795 58.4149 17.3026 58.8553L17.3026 58.8553C20.2245 62.8331 24.7354 65.163 29.6905 65.243V65.2431H29.6921H36.163C36.7084 65.2431 37.1512 64.8006 37.1494 64.2549ZM37.1494 64.2549H37.0494M37.1494 64.2549C37.1494 64.2547 37.1494 64.2546 37.1494 64.2545L37.0494 64.2549M37.0494 64.2549C37.0512 64.7452 36.6534 65.1431 36.163 65.1431H29.6921M37.0494 64.2549C37.0494 63.7645 36.6515 63.3667 36.1612 63.3667H29.7051C25.3566 63.2945 21.3875 61.2461 18.8136 57.7433L29.6921 65.1431M29.6921 65.1431C24.7682 65.0635 20.2865 62.7486 17.3832 58.7961L29.6921 65.1431Z" fill="white" stroke="white" stroke-width="0.2"/>
<path d="M17.6419 32.2024L17.6423 32.2027C17.794 32.2867 17.9587 32.3281 18.1219 32.3281C18.4693 32.3281 18.8052 32.1451 18.9846 31.8216C23.8027 23.1791 34.7138 19.9597 43.3043 24.6477C44.9403 25.5476 46.4533 26.7072 47.7973 28.0935L47.7977 28.0939C47.9849 28.2852 48.2401 28.3923 48.5075 28.3923H48.5316C49.0771 28.3923 49.5068 27.9479 49.5068 27.4041C49.5068 27.1065 49.3721 26.8381 49.1606 26.6573C47.6929 25.155 46.0448 23.8973 44.2553 22.9143L44.2551 22.9142C34.7116 17.7025 22.6036 21.2722 17.2593 30.8582C16.9935 31.3341 17.1648 31.9351 17.6419 32.2024Z" fill="white" stroke="white" stroke-width="0.2"/>
<path d="M2.21704 59.1H17.783C18.4908 59.1 19.1 58.6248 19.1 58C19.1 57.3752 18.4908 56.9 17.783 56.9H2.21704C1.50917 56.9 0.9 57.3752 0.9 58C0.9 58.6248 1.50917 59.1 2.21704 59.1Z" fill="white" stroke="white" stroke-width="0.2"/>
<path d="M113.217 59.1H128.783C129.491 59.1 130.1 58.6248 130.1 58C130.1 57.3752 129.491 56.9 128.783 56.9H113.217C112.509 56.9 111.9 57.3752 111.9 58C111.9 58.6248 112.509 59.1 113.217 59.1Z" fill="white" stroke="white" stroke-width="0.2"/>
<path d="M7.97019 32.1H18.0298C18.6235 32.1 19.1 31.6044 19.1 31C19.1 30.3956 18.6235 29.9 18.0298 29.9H7.97019C7.3765 29.9 6.9 30.3956 6.9 31C6.9 31.6044 7.3765 32.1 7.97019 32.1Z" fill="white" stroke="white" stroke-width="0.2"/>
<path d="M112.97 32.1H123.03C123.623 32.1 124.1 31.6044 124.1 31C124.1 30.3956 123.623 29.9 123.03 29.9H112.97C112.377 29.9 111.9 30.3956 111.9 31C111.9 31.6044 112.377 32.1 112.97 32.1Z" fill="white" stroke="white" stroke-width="0.2"/>
<path d="M56.309 39.0468H58.0428L61.5679 35.4181H61.6679V35.418V31.9523C61.6679 29.9542 60.0429 28.3272 58.0428 28.3272H42.8065C42.2609 28.3272 41.8183 28.7699 41.8183 29.3154C41.8183 29.861 42.2609 30.3036 42.8065 30.3036H58.0428C58.9535 30.3036 59.6933 31.0434 59.6933 31.9541V35.42C59.6933 36.3306 58.9535 37.0704 58.0428 37.0704H56.309C55.7634 37.0704 55.3208 37.513 55.3208 38.0586C55.3208 38.6042 55.7634 39.0468 56.309 39.0468Z" fill="white" stroke="white" stroke-width="0.2"/>
<path d="M59.6112 44.1632V44.1631V40.6954C59.6112 38.6954 57.9862 37.0704 55.9862 37.0704C55.4406 37.0704 54.998 37.513 54.998 38.0586C54.998 38.6042 55.4406 39.0468 55.9862 39.0468C56.895 39.0468 57.6348 39.7866 57.6348 40.6954V44.1631C57.6348 45.0739 56.895 45.8136 55.9862 45.8136H54.2505C53.7049 45.8136 53.2623 46.2562 53.2623 46.8018C53.2623 47.3474 53.7049 47.79 54.2505 47.79H55.9862C57.9845 47.79 59.6093 46.163 59.6112 44.1632Z" fill="white" stroke="white" stroke-width="0.2"/>
<path d="M52.1995 56.5278H53.9334C55.9334 56.5278 57.5584 54.9028 57.5584 52.9027V49.4351C57.5584 47.4351 55.9334 45.81 53.9334 45.81C53.3878 45.81 52.9452 46.2526 52.9452 46.7982C52.9452 47.3438 53.3878 47.7864 53.9334 47.7864C54.8422 47.7864 55.582 48.5262 55.582 49.4351V52.9027C55.582 53.8116 54.8422 54.5514 53.9334 54.5514H52.1995C51.6539 54.5514 51.2113 54.994 51.2113 55.5396C51.2113 56.0852 51.6539 56.5278 52.1995 56.5278Z" fill="white" stroke="white" stroke-width="0.2"/>
<path d="M36.1638 65.271H36.1639L51.8775 65.2673C53.8757 65.2673 55.5026 63.6423 55.5026 61.6422V58.1746C55.5026 56.1746 53.8775 54.5495 51.8775 54.5495C51.3319 54.5495 50.8893 54.9921 50.8893 55.5377C50.8893 56.0833 51.3319 56.5259 51.8775 56.5259C52.7883 56.5259 53.528 57.2658 53.528 58.1746V61.6422C53.528 62.551 52.7883 63.2909 51.8775 63.2909L36.1638 63.2946C36.1638 63.2946 36.1638 63.2946 36.1638 63.2946C35.6182 63.2946 35.1756 63.7372 35.1756 64.2828C35.1756 64.8284 35.6182 65.271 36.1638 65.271Z" fill="white" stroke="white" stroke-width="0.2"/>
<path d="M65.0005 14C64.4484 14 64.0005 13.5924 64.0005 13.0901V0.909907C64.0005 0.407562 64.4484 0 65.0005 0C65.5526 0 66.0005 0.407562 66.0005 0.909907V13.0901C66.0005 13.5924 65.5526 14 65.0005 14Z" fill="white"/>
<path d="M74.8665 16.6244C74.3884 16.3483 74.2043 15.7714 74.4554 15.3364L80.5455 4.788C80.7967 4.35296 81.3884 4.22396 81.8665 4.5C82.3446 4.77604 82.5288 5.35296 82.2776 5.788L76.1875 16.3364C75.9363 16.7714 75.3446 16.9004 74.8665 16.6244Z" fill="white"/>
<path d="M54.8665 16.6244C54.3884 16.9004 53.7967 16.7714 53.5455 16.3364L47.4554 5.788C47.2043 5.35296 47.3884 4.77604 47.8665 4.5C48.3446 4.22396 48.9363 4.35296 49.1875 4.788L55.2776 15.3364C55.5288 15.7714 55.3446 16.3483 54.8665 16.6244Z" fill="white"/>
<path d="M65.0005 14C64.4484 14 64.0005 13.5868 64.0005 13.0776V5.92243C64.0005 5.41317 64.4484 5 65.0005 5C65.5526 5 66.0005 5.41317 66.0005 5.92243V13.0776C66.0005 13.5868 65.5526 14 65.0005 14Z" fill="#6FB8FF"/>
<path d="M74.8665 16.6243C74.3884 16.3482 74.2071 15.7664 74.4617 15.3254L76.5393 11.727C76.7939 11.2859 77.3884 11.1521 77.8665 11.4281C78.3446 11.7041 78.526 12.2859 78.2713 12.727L76.1938 16.3254C75.9391 16.7664 75.3446 16.9003 74.8665 16.6243Z" fill="#6FB8FF"/>
<path d="M54.8665 16.6243C54.3884 16.9003 53.7939 16.7664 53.5393 16.3254L51.4617 12.727C51.2071 12.2859 51.3884 11.7041 51.8665 11.4281C52.3446 11.1521 52.9391 11.2859 53.1938 11.727L55.2713 15.3254C55.526 15.7664 55.3446 16.3482 54.8665 16.6243Z" fill="#6FB8FF"/>
<path d="M64.7329 75.1244C65.285 75.1244 65.7329 75.532 65.7329 76.0343L65.7329 88.2145C65.7329 88.7168 65.285 89.1244 64.7329 89.1244C64.1808 89.1244 63.7329 88.7168 63.7329 88.2145L63.7329 76.0343C63.7329 75.532 64.1808 75.1244 64.7329 75.1244Z" fill="white"/>
<path d="M54.8669 72.5C55.345 72.7761 55.5291 73.353 55.278 73.788L49.1879 84.3364C48.9367 84.7714 48.345 84.9004 47.8669 84.6244C47.3888 84.3483 47.2046 83.7714 47.4558 83.3364L53.5459 72.788C53.7971 72.353 54.3888 72.224 54.8669 72.5Z" fill="white"/>
<path d="M74.8669 72.5C75.345 72.224 75.9367 72.353 76.1879 72.788L82.278 83.3364C82.5291 83.7714 82.345 84.3483 81.8669 84.6244C81.3888 84.9004 80.7971 84.7714 80.5459 84.3364L74.4558 73.788C74.2046 73.353 74.3888 72.7761 74.8669 72.5Z" fill="white"/>
<path d="M64.7329 75.1244C65.285 75.1244 65.7329 75.5376 65.7329 76.0468L65.7329 83.202C65.7329 83.7112 65.285 84.1244 64.7329 84.1244C64.1808 84.1244 63.7329 83.7112 63.7329 83.202L63.7329 76.0468C63.7329 75.5376 64.1808 75.1244 64.7329 75.1244Z" fill="#6FB8FF"/>
<path d="M54.8669 72.5001C55.345 72.7762 55.5263 73.358 55.2717 73.799L53.1941 77.3974C52.9395 77.8385 52.345 77.9723 51.8669 77.6963C51.3888 77.4202 51.2074 76.8385 51.4621 76.3974L53.5396 72.799C53.7943 72.358 54.3888 72.2241 54.8669 72.5001Z" fill="#6FB8FF"/>
<path d="M74.8669 72.5001C75.345 72.2241 75.9395 72.358 76.1941 72.799L78.2717 76.3974C78.5263 76.8385 78.345 77.4202 77.8669 77.6963C77.3888 77.9723 76.7943 77.8385 76.5396 77.3974L74.4621 73.799C74.2074 73.358 74.3888 72.7762 74.8669 72.5001Z" fill="#6FB8FF"/>
</svg>
