<svg width="25" height="24" viewBox="0 0 25 24" fill="none" xmlns="http://www.w3.org/2000/svg">
<g clip-path="url(#clip0_1_308)">
<path d="M12.8877 20.625C17.6512 20.625 21.5127 16.7635 21.5127 12C21.5127 7.23654 17.6512 3.375 12.8877 3.375C8.12424 3.375 4.2627 7.23654 4.2627 12C4.2627 16.7635 8.12424 20.625 12.8877 20.625Z" stroke="#00838F" stroke-miterlimit="10" stroke-linecap="round" stroke-linejoin="round"/>
<path d="M12.2021 13.5879V13.2129C12.2021 12.7832 12.2803 12.4258 12.4365 12.1406C12.5928 11.8555 12.8662 11.5605 13.2568 11.2559C13.7217 10.8887 14.0205 10.6035 14.1533 10.4004C14.29 10.1973 14.3584 9.95508 14.3584 9.67383C14.3584 9.3457 14.249 9.09375 14.0303 8.91797C13.8115 8.74219 13.4971 8.6543 13.0869 8.6543C12.7158 8.6543 12.3721 8.70703 12.0557 8.8125C11.7393 8.91797 11.4307 9.04492 11.1299 9.19336L10.6377 8.16211C11.4307 7.7207 12.2803 7.5 13.1865 7.5C13.9521 7.5 14.5596 7.6875 15.0088 8.0625C15.458 8.4375 15.6826 8.95508 15.6826 9.61523C15.6826 9.9082 15.6396 10.1699 15.5537 10.4004C15.4678 10.627 15.3369 10.8438 15.1611 11.0508C14.9893 11.2578 14.6904 11.5273 14.2646 11.8594C13.9014 12.1445 13.6572 12.3809 13.5322 12.5684C13.4111 12.7559 13.3506 13.0078 13.3506 13.3242V13.5879H12.2021ZM11.9619 15.457C11.9619 14.8672 12.249 14.5723 12.8232 14.5723C13.1045 14.5723 13.3193 14.6504 13.4678 14.8066C13.6162 14.959 13.6904 15.1758 13.6904 15.457C13.6904 15.7344 13.6143 15.9551 13.4619 16.1191C13.3135 16.2793 13.1006 16.3594 12.8232 16.3594C12.5459 16.3594 12.333 16.2812 12.1846 16.125C12.0361 15.9648 11.9619 15.7422 11.9619 15.457Z" fill="#00838F"/>
</g>
<defs>
<clipPath id="clip0_1_308">
<rect width="24" height="24" fill="white" transform="translate(0.887695)"/>
</clipPath>
</defs>
</svg>
