<svg width="80" height="91" viewBox="0 0 80 91" fill="none" xmlns="http://www.w3.org/2000/svg">
<path d="M78.7868 88.5554H68.1987V40.6629C68.1987 40.3573 68.0506 40.0701 67.8004 39.8918C67.5548 39.7134 67.233 39.6672 66.9435 39.7644L59.6162 42.2577V8.94828C59.6162 8.42497 59.1901 8 58.6667 8L26.5056 0C25.9823 0 25.5573 0.424974 25.5573 0.948279V28.104H11.5513C11.028 28.104 10.603 28.5289 10.603 29.0522V88.5552H0.948278C0.424974 88.5552 0 88.9812 0 89.5047C0 90.028 0.424974 90.4542 0.948278 90.4542H11.5513H18.2104H31.1837H39.4002H67.2494H78.7868C79.3101 90.4542 79.7363 90.0282 79.7363 89.5047C79.7363 88.9816 79.3101 88.5554 78.7868 88.5554ZM27.454 1.89674L57.7173 9.89674V42.9039L40.3485 48.8141V29.0524C40.3485 28.5291 39.9235 28.1041 39.4002 28.1041H27.454V1.89674ZM12.4996 30.0007H38.452V50.1391V88.5554H32.1321V70.3576C32.1321 69.8343 31.7071 69.4081 31.1838 69.4081H18.2104C17.6871 69.4081 17.2621 69.8341 17.2621 70.3576V88.5554H12.4996V30.0007ZM19.1587 71.3071H23.7486V78.0009C23.037 78.3524 22.5455 79.0843 22.5455 79.9314C22.5455 80.7767 23.037 81.5081 23.7486 81.8596V88.5555H19.1587V71.3071ZM25.6453 88.5554V81.8594C26.3569 81.5079 26.8484 80.7766 26.8484 79.9312C26.8484 79.0843 26.3569 78.3524 25.6453 78.0007V71.3069H30.2352V88.5552L25.6453 88.5554ZM40.3485 88.5554V50.8189L66.2997 41.9875V88.5554H40.3485Z" fill="white"/>
<path d="M15.4327 41.6112H23.1745C23.6978 41.6112 24.1228 41.1862 24.1228 40.6629V34.2643C24.1228 33.741 23.6978 33.316 23.1745 33.316H15.4327C14.9094 33.316 14.4844 33.741 14.4844 34.2643V40.6629C14.4844 41.1862 14.9092 41.6112 15.4327 41.6112ZM16.381 35.2126H22.2261V39.7147H16.381V35.2126Z" fill="white"/>
<path d="M27.778 41.6112H35.5198C36.0431 41.6112 36.4681 41.1862 36.4681 40.6629V34.2643C36.4681 33.741 36.0431 33.316 35.5198 33.316H27.778C27.2547 33.316 26.8297 33.741 26.8297 34.2643V40.6629C26.8297 41.1862 27.2547 41.6112 27.778 41.6112ZM28.7264 35.2126H34.5715V39.7147H28.7264V35.2126Z" fill="white"/>
<path d="M51.0253 52.33H43.2835C42.7602 52.33 42.334 52.7549 42.334 53.2782V59.6768C42.334 60.2002 42.76 60.6264 43.2835 60.6264H51.0253C51.5486 60.6264 51.9748 60.2003 51.9748 59.6768V53.2782C51.9748 52.7549 51.5486 52.33 51.0253 52.33ZM50.0758 58.7275H44.233V54.2267H50.0758V58.7275Z" fill="white"/>
<path d="M63.3684 52.33H55.6266C55.1033 52.33 54.677 52.7549 54.677 53.2782V59.6768C54.677 60.2002 55.1031 60.6264 55.6266 60.6264H63.3684C63.8917 60.6264 64.3179 60.2003 64.3179 59.6768V53.2782C64.3177 52.7549 63.8917 52.33 63.3684 52.33ZM62.4188 58.7275H56.5761V54.2267H62.4188V58.7275Z" fill="white"/>
<path d="M15.4327 54.2267H23.1745C23.6978 54.2267 24.1228 53.8017 24.1228 53.2784V46.8798C24.1228 46.3565 23.6978 45.9315 23.1745 45.9315H15.4327C14.9094 45.9315 14.4844 46.3565 14.4844 46.8798V53.2784C14.4844 53.8017 14.9092 54.2267 15.4327 54.2267ZM16.381 47.8281H22.2261V52.3301H16.381V47.8281Z" fill="white"/>
<path d="M27.778 54.2267H35.5198C36.0431 54.2267 36.4681 53.8017 36.4681 53.2784V46.8798C36.4681 46.3565 36.0431 45.9315 35.5198 45.9315H27.778C27.2547 45.9315 26.8297 46.3565 26.8297 46.8798V53.2784C26.8297 53.8017 27.2547 54.2267 27.778 54.2267ZM28.7264 47.8281H34.5715V52.3301H28.7264V47.8281Z" fill="white"/>
<path d="M23.1745 66.8422C23.6978 66.8422 24.1228 66.4162 24.1228 65.8927V59.4941C24.1228 58.9708 23.6978 58.5446 23.1745 58.5446H15.4327C14.9094 58.5446 14.4844 58.9706 14.4844 59.4941V65.8927C14.4844 66.416 14.9094 66.8422 15.4327 66.8422H23.1745ZM16.381 60.4436H22.2261V64.9432H16.381V60.4436Z" fill="white"/>
<path d="M27.778 66.8422H35.5198C36.0431 66.8422 36.4681 66.4162 36.4681 65.8927V59.4941C36.4681 58.9708 36.0431 58.5446 35.5198 58.5446H27.778C27.2547 58.5446 26.8297 58.9706 26.8297 59.4941V65.8927C26.8297 66.416 27.2547 66.8422 27.778 66.8422ZM28.7264 60.4436H34.5715V64.9432H28.7264V60.4436Z" fill="white"/>
<path d="M51.0253 64.1327H43.2835C42.7602 64.1327 42.334 64.5587 42.334 65.0822V71.4808C42.334 72.0041 42.76 72.4304 43.2835 72.4304H51.0253C51.5486 72.4304 51.9748 72.0043 51.9748 71.4808V65.0822C51.9748 64.5587 51.5486 64.1327 51.0253 64.1327ZM50.0758 70.5313H44.233V66.0316H50.0758V70.5313Z" fill="white"/>
<path d="M63.3684 64.1327H55.6266C55.1033 64.1327 54.677 64.5587 54.677 65.0822V71.4808C54.677 72.0041 55.1031 72.4304 55.6266 72.4304H63.3684C63.8917 72.4304 64.3179 72.0043 64.3179 71.4808V65.0822C64.3177 64.5587 63.8917 64.1327 63.3684 64.1327ZM62.4188 70.5313H56.5761V66.0316H62.4188V70.5313Z" fill="white"/>
<path d="M51.0253 76.7493H43.2835C42.7602 76.7493 42.334 77.1753 42.334 77.6988V84.0974C42.334 84.6207 42.76 85.0469 43.2835 85.0469H51.0253C51.5486 85.0469 51.9748 84.6209 51.9748 84.0974V77.6988C51.9748 77.1755 51.5486 76.7493 51.0253 76.7493ZM50.0758 83.1479H44.233V78.6481H50.0758V83.1479Z" fill="white"/>
<path d="M63.3684 76.7493H55.6266C55.1033 76.7493 54.677 77.1753 54.677 77.6988V84.0974C54.677 84.6207 55.1031 85.0469 55.6266 85.0469H63.3684C63.8917 85.0469 64.3179 84.6209 64.3179 84.0974V77.6988C64.3177 77.1755 63.8917 76.7493 63.3684 76.7493ZM62.4188 83.1479H56.5761V78.6481H62.4188V83.1479Z" fill="white"/>
<path d="M45.6682 41.58H53.887C54.4103 41.58 54.8366 41.155 54.8366 40.6317V34.2945C54.8366 33.7712 54.4105 33.3462 53.887 33.3462H45.6682C45.1448 33.3462 44.7186 33.7712 44.7186 34.2945V40.6317C44.7188 41.155 45.1448 41.58 45.6682 41.58ZM46.6177 35.2427H52.9375V39.6833H46.6177V35.2427Z" fill="white"/>
<path d="M45.6682 27.9488H53.887C54.4103 27.9488 54.8366 27.5238 54.8366 27.0005V20.6632C54.8366 20.1399 54.4105 19.715 53.887 19.715H45.6682C45.1448 19.715 44.7186 20.1399 44.7186 20.6632V27.0005C44.7188 27.5238 45.1448 27.9488 45.6682 27.9488ZM46.6177 21.6115H52.9375V26.0521H46.6177V21.6115Z" fill="white"/>
<path d="M40.1174 25.0576V21.116C40.1174 20.5927 39.6924 20.1677 39.1691 20.1677H30.5195C29.9962 20.1677 29.5713 20.5927 29.5713 21.116C29.5713 21.6393 29.9962 22.0643 30.5195 22.0643H38.2208V25.0574C38.2208 25.5807 38.6458 26.0057 39.1691 26.0057C39.6924 26.0059 40.1174 25.5809 40.1174 25.0576Z" fill="white"/>
</svg>
