<svg width="147" height="61" viewBox="0 0 147 61" fill="none" xmlns="http://www.w3.org/2000/svg">
<path d="M55.8877 36.9996H73.8877C73.8877 36.9996 73.8877 33.7799 72.3225 30.6495C71.1548 28.3142 66.0616 26.7364 59.8007 24.3886V19.693C59.8007 19.693 62.1486 18.1277 62.1486 14.9973C62.9312 14.9973 63.7138 11.8669 62.1486 11.0843C62.1486 10.6178 64.2444 6.69852 63.7138 4.04078C62.9312 0.127734 51.9747 0.127734 51.192 3.25817C46.4964 3.25817 49.6268 10.4488 49.6268 11.0843C48.0616 11.8669 48.8442 14.9973 49.6268 14.9973C49.6268 18.1277 51.9747 19.693 51.9747 19.693V24.3886C45.7138 26.7364 40.619 28.3142 39.4529 30.6495C37.8877 33.7799 37.8877 36.9996 37.8877 36.9996H55.8877Z" fill="#66E6AB" stroke="white" stroke-width="2" stroke-miterlimit="10" stroke-linejoin="round"/>
<path d="M19.8877 36.9996H37.8877C37.8877 36.9996 37.8877 33.7799 36.3225 30.6495C35.1548 28.3142 30.0616 26.7364 23.8007 24.3886V19.693C23.8007 19.693 26.1486 18.1277 26.1486 14.9973C26.9312 14.9973 27.7138 11.8669 26.1486 11.0843C26.1486 10.6178 28.2444 6.69852 27.7138 4.04078C26.9312 0.127734 15.9747 0.127734 15.192 3.25817C10.4964 3.25817 13.6268 10.4488 13.6268 11.0843C12.0616 11.8669 12.8442 14.9973 13.6268 14.9973C13.6268 18.1277 15.9747 19.693 15.9747 19.693V24.3886C9.71378 26.7364 4.619 28.3142 3.45291 30.6495C1.8877 33.7799 1.8877 36.9996 1.8877 36.9996H19.8877Z" fill="#66E6AB" stroke="white" stroke-width="2" stroke-miterlimit="10" stroke-linejoin="round"/>
<path d="M91.8877 36.9996H109.888C109.888 36.9996 109.888 33.7799 108.322 30.6495C107.155 28.3142 102.062 26.7364 95.8007 24.3886V19.693C95.8007 19.693 98.1486 18.1277 98.1486 14.9973C98.9312 14.9973 99.7138 11.8669 98.1486 11.0843C98.1486 10.6178 100.244 6.69852 99.7138 4.04078C98.9312 0.127734 87.9747 0.127734 87.192 3.25817C82.4964 3.25817 85.6268 10.4488 85.6268 11.0843C84.0616 11.8669 84.8442 14.9973 85.6268 14.9973C85.6268 18.1277 87.9747 19.693 87.9747 19.693V24.3886C81.7138 26.7364 76.619 28.3142 75.4529 30.6495C73.8877 33.7799 73.8877 36.9996 73.8877 36.9996H91.8877Z" fill="#66E6AB" stroke="white" stroke-width="2" stroke-miterlimit="10" stroke-linejoin="round"/>
<path d="M127.888 36.9996H145.888C145.888 36.9996 145.888 33.7799 144.322 30.6495C143.155 28.3142 138.062 26.7364 131.801 24.3886V19.693C131.801 19.693 134.149 18.1277 134.149 14.9973C134.931 14.9973 135.714 11.8669 134.149 11.0843C134.149 10.6178 136.244 6.69852 135.714 4.04078C134.931 0.127734 123.975 0.127734 123.192 3.25817C118.496 3.25817 121.627 10.4488 121.627 11.0843C120.062 11.8669 120.844 14.9973 121.627 14.9973C121.627 18.1277 123.975 19.693 123.975 19.693V24.3886C117.714 26.7364 112.619 28.3142 111.453 30.6495C109.888 33.7799 109.888 36.9996 109.888 36.9996H127.888Z" fill="#66E6AB" stroke="white" stroke-width="2" stroke-miterlimit="10" stroke-linejoin="round"/>
<path d="M111.888 59.9996H129.888C129.888 59.9996 129.888 56.7799 128.322 53.6495C127.155 51.3142 122.062 49.7364 115.801 47.3886V42.693C115.801 42.693 118.149 41.1277 118.149 37.9973C118.931 37.9973 119.714 34.8669 118.149 34.0843C118.149 33.6178 120.244 29.6985 119.714 27.0408C118.931 23.1277 107.975 23.1277 107.192 26.2582C102.496 26.2582 105.627 33.4488 105.627 34.0843C104.062 34.8669 104.844 37.9973 105.627 37.9973C105.627 41.1277 107.975 42.693 107.975 42.693V47.3886C101.714 49.7364 96.619 51.3142 95.4529 53.6495C93.8877 56.7799 93.8877 59.9996 93.8877 59.9996H111.888Z" fill="#66E6AB" stroke="white" stroke-width="2" stroke-miterlimit="10" stroke-linejoin="round"/>
<path d="M38.8877 59.9996H56.8877C56.8877 59.9996 56.8877 56.7799 55.3225 53.6495C54.1548 51.3142 49.0616 49.7364 42.8007 47.3886V42.693C42.8007 42.693 45.1486 41.1277 45.1486 37.9973C45.9312 37.9973 46.7138 34.8669 45.1486 34.0843C45.1486 33.6178 47.2444 29.6985 46.7138 27.0408C45.9312 23.1277 34.9747 23.1277 34.192 26.2582C29.4964 26.2582 32.6268 33.4488 32.6268 34.0843C31.0616 34.8669 31.8442 37.9973 32.6268 37.9973C32.6268 41.1277 34.9747 42.693 34.9747 42.693V47.3886C28.7138 49.7364 23.619 51.3142 22.4529 53.6495C20.8877 56.7799 20.8877 59.9996 20.8877 59.9996H38.8877Z" fill="#66E6AB" stroke="white" stroke-width="2" stroke-miterlimit="10" stroke-linejoin="round"/>
<path d="M74.8877 59.9996H92.8877C92.8877 59.9996 92.8877 56.7799 91.3225 53.6495C90.1548 51.3142 85.0616 49.7364 78.8007 47.3886V42.693C78.8007 42.693 81.1486 41.1277 81.1486 37.9973C81.9312 37.9973 82.7138 34.8669 81.1486 34.0843C81.1486 33.6178 83.2444 29.6985 82.7138 27.0408C81.9312 23.1277 70.9747 23.1277 70.192 26.2582C65.4964 26.2582 68.6268 33.4488 68.6268 34.0843C67.0616 34.8669 67.8442 37.9973 68.6268 37.9973C68.6268 41.1277 70.9747 42.693 70.9747 42.693V47.3886C64.7138 49.7364 59.619 51.3142 58.4529 53.6495C56.8877 56.7799 56.8877 59.9996 56.8877 59.9996H74.8877Z" fill="#66E6AB" stroke="white" stroke-width="2" stroke-miterlimit="10" stroke-linejoin="round"/>
</svg>
