<svg width="70" height="57" viewBox="0 0 70 57" fill="none" xmlns="http://www.w3.org/2000/svg">
<path d="M32.004 56.03C16.6239 56.03 4.03639 47.5409 1.39615 35.3817C-1.84134 20.4835 10.7214 5.05807 29.405 0.992667C32.4116 0.336388 35.4798 0.00360526 38.5573 0C53.9374 0 66.5249 8.48914 69.1651 20.6441C70.7427 27.8976 68.675 35.4723 63.341 41.9844C58.0069 48.4964 50.1603 53.0726 41.1563 55.0332C38.1498 55.691 35.0816 56.0252 32.004 56.03ZM38.5531 1.65993C35.5952 1.65993 32.6458 1.97614 29.7551 2.60318C11.9612 6.47086 -0.0413654 21.019 3.00665 35.0316C5.47802 46.4246 17.423 54.3907 32.004 54.3907C34.9638 54.3868 37.9146 54.0665 40.8062 53.4351C49.456 51.5527 57.0101 47.1207 62.0641 40.9547C67.118 34.7886 69.021 27.774 67.5546 21.0066C65.0791 9.60538 53.1548 1.64758 38.5573 1.64758L38.5531 1.65993Z" fill="white"/>
<path d="M38.2319 48.4799C34.2794 48.4791 30.4158 47.3063 27.1298 45.1098C23.8439 42.9133 21.283 39.7918 19.771 36.1399C18.259 32.488 17.8638 28.4698 18.6354 24.5933C19.407 20.7169 21.3107 17.1563 24.1058 14.3617C26.901 11.5671 30.462 9.66416 34.3386 8.89336C38.2152 8.12256 42.2333 8.51858 45.8849 10.0313C49.5365 11.5441 52.6575 14.1056 54.8533 17.3921C57.0491 20.6785 58.2211 24.5423 58.2211 28.4948C58.2146 33.7938 56.1063 38.874 52.3589 42.6206C48.6115 46.3672 43.531 48.4744 38.2319 48.4799ZM38.2319 10.1737C34.6052 10.1745 31.0602 11.2507 28.0452 13.2661C25.0301 15.2816 22.6804 18.1458 21.2931 21.4966C19.9058 24.8474 19.5433 28.5344 20.2513 32.0912C20.9593 35.6481 22.7061 38.9152 25.2708 41.4793C27.8356 44.0434 31.103 45.7895 34.66 46.4967C38.217 47.2039 41.9039 46.8406 45.2544 45.4525C48.6049 44.0645 51.4686 41.7141 53.4834 38.6986C55.4981 35.6831 56.5735 32.1379 56.5735 28.5112C56.5724 23.6459 54.6401 18.98 51.2009 15.5386C47.7618 12.0971 43.0972 10.1616 38.2319 10.1572V10.1737Z" fill="white"/>
<path d="M35.2825 40.4974C32.8141 40.4974 30.4012 39.7655 28.3488 38.3941C26.2964 37.0227 24.6968 35.0736 23.7521 32.7931C22.8075 30.5126 22.5604 28.0032 23.0419 25.5822C23.5235 23.1613 24.7121 20.9375 26.4576 19.192C28.203 17.4466 30.4268 16.258 32.8477 15.7764C35.2687 15.2949 37.7781 15.542 40.0586 16.4866C42.3391 17.4313 44.2882 19.0309 45.6596 21.0833C47.031 23.1357 47.7629 25.5486 47.7629 28.017C47.7586 31.3257 46.4423 34.4976 44.1027 36.8372C41.7631 39.1768 38.5912 40.4931 35.2825 40.4974ZM35.2825 17.1842C33.14 17.1842 31.0456 17.8195 29.2641 19.0099C27.4827 20.2002 26.0942 21.892 25.2743 23.8715C24.4544 25.8509 24.2399 28.029 24.6579 30.1304C25.0758 32.2318 26.1076 34.162 27.6226 35.677C29.1376 37.192 31.0678 38.2237 33.1691 38.6417C35.2705 39.0597 37.4486 38.8452 39.4281 38.0253C41.4075 37.2053 43.0994 35.8169 44.2897 34.0354C45.48 32.254 46.1154 30.1596 46.1154 28.017C46.1121 25.145 44.9697 22.3915 42.9389 20.3607C40.908 18.3298 38.1546 17.1875 35.2825 17.1842Z" fill="white"/>
</svg>
